<?xml version="1.0" encoding="utf-8"?>
<!-- Generator: Adobe Illustrator 24.1.2, SVG Export Plug-In . SVG Version: 6.00 Build 0)  -->
<svg version="1.1" xmlns="http://www.w3.org/2000/svg" xmlns:xlink="http://www.w3.org/1999/xlink" x="0px" y="0px"
	 viewBox="0 0 1294.1 905" style="enable-background:new 0 0 1294.1 905;" xml:space="preserve">
<style type="text/css">
	.st0{fill:#F3A712;}
	.st1{fill:#3F3D56;}
	.st2{fill:#2F2E41;}
	.st3{fill:#A0616A;}
	.st4{fill:#CFCCE0;}
	.st5{fill:#FFFFFF;}
	.st6{fill:#140152;}
</style>
<g id="Camada_2">
</g>
<g id="a139742c-031f-4297-9910-0b661ecf4262">
	<path class="st0" d="M100,575.9l-7.2-28.3c-12.7-5.4-25.7-10-38.9-14L53,546.8l-3.7-14.5c-16.4-4.7-27.6-6.7-27.6-6.7
		s15.1,57.3,46.7,101.2l36.8,6.5l-28.6,4.1c4,4.8,8.3,9.3,12.8,13.6c46,42.7,97.2,62.3,114.4,43.8s-6.1-68.2-52.1-110.9
		c-14.3-13.2-32.2-23.9-50.1-32.2L100,575.9z"/>
	<path class="st0" d="M168.1,545.2l8.5-27.9c-8.1-11.2-16.8-21.9-26.1-32.1l-7.6,10.8l4.3-14.3c-11.6-12.5-20.1-20-20.1-20
		s-16.7,56.9-12.3,110.7L143,597l-26.6-11.3c0.9,6.2,2.3,12.2,3.9,18.2c17.3,60.3,51,103.6,75.3,96.6s30-61.5,12.7-121.9
		c-5.4-18.7-15.2-37.1-26.2-53.5L168.1,545.2z"/>
	<rect x="21.8" y="704.8" class="st1" width="1192.9" height="3"/>
	<path class="st2" d="M210.3,393.1c0,0-9.3,111.7-11.3,135.6c-1.4,15-4.7,29.8-10,43.9c0,0-4,8-4,16v101.7c0,0-8,0-6,8
		s4,21.9,4,21.9H213c0,0-2-6,4-8c6-2,0-18,0-18l31.9-119.7l47.9-99.7c0,0,27.9,89.8,33.9,99.7c0,0,21.9,111.7,25.9,121.7
		c4,10,6,10,4,14c-2,4-2,8,0,10c2,2,39.9,0,39.9,0l-10-141.6l-18-169.5l-91.7-27.9L210.3,393.1z"/>
	<path class="st2" d="M205,704.2c0,0-10-35.9-25.9-8c-16,27.9-16,37.9-16,37.9s-25.9,37.9,10,33.9c35.9-4,27.9-21.9,27.9-21.9
		s14-8,14-14S205,704.2,205,704.2z"/>
	<path class="st2" d="M366.6,700.2c0,0,10-35.9,25.9-8c16,27.9,16,37.9,16,37.9s25.9,37.9-10,33.9c-35.9-4-27.9-21.9-27.9-21.9
		s-14-8-14-14S366.6,700.2,366.6,700.2z"/>
	<path class="st3" d="M272.8,123.8c0,0,4,25.9-8,31.9c-12,6,25.9,27.9,35.9,27.9c10,0,27.9-19.9,27.9-19.9s-10-29.9-8-35.9
		L272.8,123.8z"/>
	<circle class="st3" cx="294.8" cy="101.9" r="41.9"/>
	<path class="st4" d="M376.5,187.6l-49.9-30.2c0,0-28.4,32.2-59.1-3.7l-52.6,14l8,135.6c0,0-12,53.9-8,63.8c4,10-10,14-6,16
		c4,2,0,16,0,16s77.8,39.9,163.6,10l-8-25.9c2.2-6.9,0.7-14.4-4-19.9c0,0,8-12-2-21.9c0,0,4-18-6-25.9l-2-27.9l6-14L376.5,187.6z"/>
	<path class="st2" d="M273.3,82.4c0,0-5,10.8,15,6.5c0,0,7.5,4.3,7.5-2.2c0,0,10,10.8,12.5,4.3c2.5-6.5,7.5,2.2,7.5,2.2l5-10.8
		l5,6.5h17.5c0,0,5-43.2-54.9-38.9s-30.4,72.8-30.4,72.8s0.5-12.3,5.5-5.8C268.3,123.5,273.3,82.4,273.3,82.4z"/>
	<path class="st3" d="M394.5,267.4l2,41.9c0,0,8,77.8-8,111.7v18c0,0-4,45.9-23.9,43.9s6-65.8,6-65.8l-4-87.8l-4-49.9L394.5,267.4z"
		/>
	<path class="st4" d="M354.6,189.6l19.9-3.2c14.3,13.8,24.1,31.6,28,51.1c6,31.9,8,37.9,8,37.9l-47.9,12l-25.9-49.9L354.6,189.6z"/>
	<rect x="268.9" y="166.9" class="st5" width="314.8" height="156.4"/>
	<path class="st6" d="M303.3,176.3c-8.1-4.9-17.8-4.5-21.5-4.1c1.4,3.4,5.6,12.2,13.7,17.1c8.1,4.9,17.8,4.5,21.5,4.1
		C315.6,189.9,311.4,181.1,303.3,176.3z"/>
	<path class="st6" d="M341.3,272.8h-50.5c-6.3,0-11.4,5.1-11.4,11.4c0,6.3,5.1,11.4,11.4,11.4l0,0h50.5c6.3,0,11.4-5.1,11.4-11.4
		C352.7,277.8,347.6,272.8,341.3,272.8z"/>
	<path class="st6" d="M570.2,152.7H286.8c-13.9,0-25.1,11.2-25.1,25.1v0v138.1c0,13.9,11.2,25.1,25.1,25.1h0h283.4
		c13.9,0,25.1-11.2,25.1-25.1V177.8C595.3,164,584,152.7,570.2,152.7C570.2,152.7,570.2,152.7,570.2,152.7z M279.8,169.8
		c0.6-0.1,13.8-2.4,24.8,4.3c11,6.6,15.2,19.4,15.4,19.9l0.4,1.4l-1.4,0.3c-2,0.3-4.1,0.5-6.1,0.5c-6.5,0.1-13-1.5-18.7-4.7
		c-11-6.6-15.2-19.4-15.4-19.9l-0.4-1.4L279.8,169.8z M341.3,298h-50.5c-7.7,0-13.9-6.2-13.9-13.9c0-7.7,6.2-13.9,13.9-13.9h50.5
		c7.7,0,13.9,6.2,13.9,13.9C355.2,291.8,349,298,341.3,298C341.3,298,341.3,298,341.3,298z M571.3,295.5c0,8.4-6.8,15.1-15.2,15.2
		h-37.9c-8.4,0-15.1-6.8-15.2-15.2v-22.7c0-8.4,6.8-15.1,15.2-15.2h37.9c8.4,0,15.1,6.8,15.2,15.2V295.5z"/>
	<path class="st6" d="M530.2,291.1h-16.4c-2.4,0-4.4,2-4.4,4.4c0,2.4,2,4.4,4.4,4.4h16.4c2.4,0,4.4-2,4.4-4.4
		C534.6,293,532.6,291.1,530.2,291.1z M530.2,297.4h-16.4c-1,0-1.9-0.8-1.9-1.9c0-1,0.8-1.9,1.9-1.9c0,0,0,0,0,0h16.4
		c1,0,1.9,0.9,1.9,1.9C532.1,296.5,531.2,297.4,530.2,297.4z"/>
	<path class="st6" d="M560.5,291.1h-16.4c-2.4,0-4.4,2-4.4,4.4c0,2.4,2,4.4,4.4,4.4h16.4c2.4,0,4.4-2,4.4-4.4
		C564.9,293,563,291.1,560.5,291.1z M560.5,297.4h-16.4c-1,0-1.9-0.8-1.9-1.9c0-1,0.8-1.9,1.9-1.9c0,0,0,0,0,0h16.4
		c1,0,1.9,0.9,1.9,1.9C562.4,296.5,561.6,297.4,560.5,297.4z"/>
	<path class="st6" d="M530.2,279.7h-16.4c-2.4,0-4.4,2-4.4,4.4c0,2.4,2,4.4,4.4,4.4h16.4c2.4,0,4.4-2,4.4-4.4
		C534.6,281.7,532.6,279.7,530.2,279.7z M530.2,286h-16.4c-1,0-1.9-0.8-1.9-1.9c0-1,0.8-1.9,1.9-1.9c0,0,0,0,0,0h16.4
		c1,0,1.9,0.8,1.9,1.9C532.1,285.2,531.3,286,530.2,286C530.2,286,530.2,286,530.2,286z"/>
	<path class="st6" d="M560.5,279.7h-16.4c-2.4,0-4.4,2-4.4,4.4c0,2.4,2,4.4,4.4,4.4h16.4c2.4,0,4.4-2,4.4-4.4
		C564.9,281.7,563,279.7,560.5,279.7z M560.5,286h-16.4c-1,0-1.9-0.8-1.9-1.9c0-1,0.8-1.9,1.9-1.9c0,0,0,0,0,0h16.4
		c1,0,1.9,0.8,1.9,1.9C562.4,285.2,561.6,286,560.5,286C560.5,286,560.5,286,560.5,286z"/>
	<path class="st6" d="M530.2,268.3h-16.4c-2.4,0-4.4,2-4.4,4.4c0,2.4,2,4.4,4.4,4.4h16.4c2.4,0,4.4-2,4.4-4.4
		C534.6,270.3,532.6,268.3,530.2,268.3z M530.2,274.6h-16.4c-1,0-1.9-0.8-1.9-1.9c0-1,0.8-1.9,1.9-1.9c0,0,0,0,0,0h16.4
		c1,0,1.9,0.9,1.9,1.9C532.1,273.8,531.2,274.6,530.2,274.6z"/>
	<path class="st6" d="M560.5,268.3h-16.4c-2.4,0-4.4,2-4.4,4.4c0,2.4,2,4.4,4.4,4.4h16.4c2.4,0,4.4-2,4.4-4.4
		C564.9,270.3,563,268.3,560.5,268.3z M560.5,274.6h-16.4c-1,0-1.9-0.8-1.9-1.9c0-1,0.8-1.9,1.9-1.9c0,0,0,0,0,0h16.4
		c1,0,1.9,0.9,1.9,1.9C562.4,273.8,561.6,274.6,560.5,274.6z"/>
	<path class="st3" d="M185.1,243.5c0,0-18,75.8,4,75.8s73.8-85.8,73.8-85.8s53.9-27.9,31.9-37.9s-49.9,16-49.9,16l-32.2,44.7
		l-1.7-22.8L185.1,243.5z"/>
	<path class="st4" d="M227,179.6l-12-12c0,0-23.9,14-25.9,27.9c-2,14-12,57.8-12,57.8l36.9,3l12-18L227,179.6z"/>
	<path class="st6" d="M793.9,151.3c-1.5-4.4-20.3-19.5-8.8-22.1l9.5,12.6l43.5-43.5l4.4,4.4L793.9,151.3z"/>
	<path class="st6" d="M793.9,299.3c-1.5-4.4-20.3-19.5-8.8-22.1l9.5,12.6l43.5-43.5l4.4,4.4L793.9,299.3z"/>
	<path class="st6" d="M793.9,449.4c-1.5-4.4-20.3-19.5-8.8-22.1l9.5,12.6l43.5-43.5l4.4,4.4L793.9,449.4z"/>
	<circle class="st1" cx="925.7" cy="133.3" r="13.4"/>
	<rect x="976.1" y="131.9" class="st1" width="216.3" height="2.7"/>
	<circle class="st1" cx="925.7" cy="281.3" r="13.4"/>
	<rect x="976.1" y="280" class="st1" width="216.3" height="2.7"/>
	<circle class="st1" cx="925.7" cy="431.4" r="13.4"/>
	<rect x="976.1" y="430.1" class="st1" width="216.3" height="2.7"/>
	<polygon class="st1" points="827.8,469.5 760.6,469.5 760.6,400.9 806.3,400.9 806.3,403.6 763.3,403.6 763.3,466.8 825.1,466.8 
		825.1,435.9 827.8,435.9 	"/>
	<polygon class="st1" points="827.8,319 760.6,319 760.6,250.5 806.3,250.5 806.3,253.2 763.3,253.2 763.3,316.3 825.1,316.3 
		825.1,285.4 827.8,285.4 	"/>
	<polygon class="st1" points="827.8,165.9 760.6,165.9 760.6,97.3 806.3,97.3 806.3,100 763.3,100 763.3,163.2 825.1,163.2 
		825.1,132.3 827.8,132.3 	"/>
</g>
</svg>
