<?xml version="1.0" encoding="utf-8"?>
<!-- Generator: Adobe Illustrator 24.1.2, SVG Export Plug-In . SVG Version: 6.00 Build 0)  -->
<svg version="1.1" id="a658aab1-b68e-4d2a-94f7-9a6e4abf15c7"
	 xmlns="http://www.w3.org/2000/svg" xmlns:xlink="http://www.w3.org/1999/xlink" x="0px" y="0px" viewBox="0 0 816.2 621"
	 style="enable-background:new 0 0 816.2 621;" xml:space="preserve">
<style type="text/css">
	.st0{fill:#F3A712;}
	.st1{fill:#FFFFFF;}
	.st2{fill:#CBCBCB;}
	.st3{fill:#FFB7B7;}
	.st4{fill:#3F3D56;}
	.st5{fill:#2F2E41;}
	.st6{opacity:0.1;enable-background:new    ;}
	.st7{fill:#6C63FF;}
</style>
<path class="st0" d="M566.9,542.7c1-1.7,2.2-3.2,3.6-4.6c0.6-0.6,1.2-1.1,1.8-1.7c11.6-10.3,29.4-9.3,39.7,2.3
	c3.4,3.9,5.7,8.6,6.7,13.7c4.1-15.3-6.6-30.3-17.4-41.8c-10.8-11.5-23.1-24.2-23.1-40c0-8.8,4.3-16.6,10.8-22.5
	c0.2-0.2,0.4-0.4,0.6-0.5c7.9-6.7,18-10.3,28.3-9.9c19.2,1,36,13.9,47.6,29.2c18.7,24.6,27,59.2,13.8,87.2
	c-11.5,24.7-36.1,39.3-61.3,51.1c-3.5,1.6-7,3.2-10.5,4.8c0,0,0,0-0.1,0c-0.2,0.1-0.3,0.1-0.5,0.2c-0.7,0.3-1.4,0.6-2.2,1l0.3,0.2
	l1,0.7c-0.4-0.2-0.7-0.4-1.1-0.6c-0.1-0.1-0.2-0.1-0.3-0.2c-12.3-7.4-24.8-15.2-33.4-26.8C562.6,572.6,559,555.4,566.9,542.7z"/>
<path class="st1" d="M649.2,514.9c2.7,6.2,4.5,12.8,5.4,19.5c0.7,6,0.4,12.1-0.7,18c-2.4,12.2-7.8,23.6-15.6,33.3
	c-5.9,7.4-12.7,14-20.2,19.6c-3.5,1.6-7,3.2-10.5,4.8c0,0,0,0-0.1,0c-0.2,0.1-0.3,0.1-0.5,0.2c-0.7,0.3-1.4,0.6-2.2,1l0.3,0.2l1,0.7
	c-0.4-0.2-0.7-0.4-1.1-0.6c-0.1-0.1-0.2-0.1-0.3-0.2c5.5-19.3,1.3-40-11.2-55.6c-6.2-7.6-14.1-13.6-23.1-17.6
	c0.6-0.6,1.2-1.1,1.8-1.7c3.5,1.6,6.8,3.5,9.9,5.7c11.2,7.7,19.6,18.9,24,31.7c3.9,11.7,4.4,24.2,1.4,36.2c0.6-0.4,1.2-0.8,1.8-1.2
	c11.5-7.7,22.1-17.1,30.1-28.5c6.9-9.6,11.3-20.8,12.8-32.6c1.5-12.8-1.7-25.5-7.4-36.9c-6.3-12.3-14.3-23.6-23.7-33.7
	c-9.4-10.4-20.1-19.5-31.8-27.3c-0.5-0.4-0.7-1.1-0.4-1.7c0.1-0.2,0.3-0.4,0.6-0.5c0.3-0.1,0.6,0,0.8,0.2c1.4,1,2.9,1.9,4.3,2.9
	c11.7,8.3,22.4,18.1,31.8,29C635.4,490.3,643.7,502,649.2,514.9z"/>
<path class="st2" d="M306.8,613.4h381c0.6,0,1-0.4,1-1s-0.4-1-1-1h-381c-0.6,0-1,0.4-1,1S306.3,613.4,306.8,613.4z"/>
<path class="st3" d="M645.8,89.1c1.1-8-4.5-15.4-12.5-16.6c-6.7-0.9-13.2,2.8-15.7,9.1l-30.9,35.4l9.1,25.3l31.1-41.4
	c7.7,2.5,15.9-1.8,18.3-9.4C645.5,90.7,645.7,89.9,645.8,89.1z"/>
<polygon class="st4" points="517.6,227 620.3,117.4 606.4,95.4 477.7,204.3 "/>
<circle class="st5" cx="494.7" cy="124.4" r="36"/>
<path class="st5" d="M497.6,104.1c7.7-7.9,17.1-13.9,27.5-17.8c6.6-2.5,13.9-4,20.8-2.6c6.9,1.4,13.5,6.2,15.4,13
	c1.6,5.6-0.1,11.6-2.5,16.8c-2.5,5.2-5.7,10.1-7.7,15.5c-6.7,18.4,2.7,38.8,21.1,45.5c4.7,1.7,9.6,2.4,14.5,2.1
	c-6.8,0.9-13.1,4.1-19.8,5.8c-6.7,1.7-14.5,1.6-19.5-3.2c-5.2-5.1-5.3-13.3-5.1-20.5c0.4-10.8,0.8-21.6,1.1-32.4
	c0.2-5.5,0.4-11.2-1.6-16.4c-2-5.1-6.7-9.7-12.2-9.6c-4.2,0-7.9,2.6-11.2,5.1c-3.4,2.5-6.9,5.2-11.1,5.5c-4.2,0.4-8.9-2.7-8.6-6.9
	L497.6,104.1z"/>
<path class="st3" d="M358,366.1c-7.8,2.2-15.9-2.4-18-10.2c-1.8-6.5,1.1-13.4,7-16.7l31.1-35.3l26.3,5.7l-37,36.2
	c3.4,7.3,0.3,16-7,19.4C359.6,365.6,358.8,365.9,358,366.1L358,366.1z"/>
<polygon class="st4" points="460.3,239.8 382.8,337.1 359.2,326.3 450.3,184.4 "/>
<polygon class="st3" points="398.5,533.6 380,533.3 382.2,596.3 398.5,596.3 "/>
<path class="st5" d="M402.6,591l-32,0h0c-11.3,0-20.4,9.1-20.4,20.4v0.7l52.4,0L402.6,591z"/>
<polygon class="st3" points="520.8,516.9 500.6,529.9 541,578.5 554.6,569.7 "/>
<path class="st5" d="M555.3,563l-26.9,17.3l0,0c-9.5,6.1-12.2,18.7-6.1,28.2l0.4,0.6l44.1-28.3L555.3,563z"/>
<path class="st4" d="M528,324.7c0,0-44.8-148.9-59.2-150.9s-37.6,38.2-37.6,38.2C401,250.3,370,374.8,370,374.8s51.7,3.2,89.6,23.4
	s82.5-1,82.5-1L528,324.7z"/>
<path class="st6" d="M528,324.7c0,0-44.8-148.9-59.2-150.9S437,212.3,437,212.3c-15,62-67,162.4-67,162.4s51.7,3.2,89.6,23.4
	s82.5-1,82.5-1L528,324.7z"/>
<polygon class="st5" points="491.2,280.1 491.2,354.9 500,463.3 544,545.3 523,560.3 463,482.3 439.3,404.9 402,576.3 374,574.3 
	393.4,336.6 430.3,269.7 "/>
<path class="st7" d="M446,207.7c-14,14-1,29-1,29l-16,36l63,17l22-98.4l-15-16c-30-1-30-1.6-30-1.6C463.7,178.9,446,207.7,446,207.7
	z"/>
<path class="st4" d="M516.5,181.1c-11.9-8.8-28.8-6.3-37.6,5.7c-0.1,0.1-0.1,0.2-0.2,0.2c-15.8,22.1-30.5,57.7-10.3,102.1
	c32.4,71.3,60.6,107.8,72.1,107.8c0.5,0,1-0.1,1.5-0.2c7.1-2.4,17.3-14.3,19.1-24.9c0.7-3.8,0.5-9-4-12.6
	c-12.9-10.3-36.2-42.6-43.4-85c-4-23.4,3.8-44.8,11-58.5c6.3-11.8,3-26.4-7.8-34.3l0,0L516.5,181.1z"/>
<circle class="st3" cx="483.9" cy="133.6" r="26.5"/>
<path class="st5" d="M446.6,131.6h38.3l0.4-5.5l2,5.5h5.9l0.8-10.9l3.9,10.9h11.4v-0.5c0-15.8-12.8-28.6-28.6-28.6h-5.4
	c-15.8,0-28.6,12.8-28.6,28.6V131.6z"/>
<path class="st5" d="M503.4,151.4l16.3-5.3v-39.7h-30.8l0.8,0.8C500.3,117.8,512.1,155.4,503.4,151.4z"/>
</svg>
