<?xml version="1.0" encoding="utf-8"?>
<!-- Generator: Adobe Illustrator 24.1.2, SVG Export Plug-In . SVG Version: 6.00 Build 0)  -->
<svg version="1.1" id="a80abe34-445f-4e13-ba21-3f71a0ed139d"
	 xmlns="http://www.w3.org/2000/svg" xmlns:xlink="http://www.w3.org/1999/xlink" x="0px" y="0px" viewBox="0 0 876.2 638.2"
	 style="enable-background:new 0 0 876.2 638.2;" xml:space="preserve">
<style type="text/css">
	.st0{fill:#F3A712;}
	.st1{fill:#F2F2F2;}
	.st2{fill:#FFB7B7;}
	.st3{fill:#6C63FF;}
	.st4{fill:#2F2E41;}
	.st5{fill:#CBCBCB;}
</style>
<path id="b1d22f69-f76d-408f-9148-ee919735497c" class="st0" d="M638.6,569.8c-11.2,3.9-23.6,1.7-32.8-5.8
	c-11.5-9.7-15.1-25.5-18-40.3l-8.7-43.5l18.2,12.5c13.1,9,26.4,18.3,35.5,31.3c9,13,13,30.8,5.7,44.9"/>
<path id="ade901b1-ea7b-4353-b3ad-0db3208b227f" class="st1" d="M635.8,625.6c2.3-16.7,4.6-33.5,3-50.4c-1.4-15-6-29.6-15.3-41.5
	c-4.9-6.3-10.9-11.8-17.7-16.1c-1.8-1.1-3.4,1.7-1.6,2.8c11.8,7.4,20.9,18.4,26,31.3c5.7,14.4,6.6,30.1,5.6,45.4
	c-0.6,9.2-1.8,18.4-3.1,27.6c-0.2,0.9,0.3,1.7,1.1,2C634.7,627,635.6,626.5,635.8,625.6L635.8,625.6z"/>
<path id="b15deb1b-9611-49d7-aeea-2d3d35262ea7" class="st0" d="M619.4,598.9c-4.8,7.3-13.1,11.6-21.8,11.3
	c-11-0.5-20.2-8.2-28.5-15.5l-24.5-21.6l16.2-0.8c11.7-0.6,23.6-1.1,34.7,2.5s21.4,12.3,23.4,23.8"/>
<path id="e75b09f7-43e2-4148-8f0b-911a9c6242e1" class="st1" d="M642.3,635.2c-11-19.5-23.8-41.1-46.6-48c-6.3-1.9-13-2.6-19.6-2
	c-2.1,0.2-1.6,3.4,0.5,3.2c11.1-0.9,22.1,2,31.3,8.3c8.8,6,15.7,14.3,21.5,23.2c3.6,5.4,6.7,11.1,9.9,16.7
	C640.3,638.3,643.3,637,642.3,635.2z"/>
<path class="st2" d="M346,327.1l-6.4-88.7l1.2-29.6l-24.9,5.5l9.2,116.3c-3.1,6.5-0.4,14.2,6,17.4c6.5,3.1,14.2,0.4,17.4-6
	C350.8,336.9,349.9,331,346,327.1L346,327.1z"/>
<path class="st2" d="M223.4,245.5l-1.6-29.7l-16-13l-9.3,27.5l-51.8,69.1c-7.1,1.1-11.9,7.8-10.8,14.9s7.8,11.9,14.9,10.8
	c6.3-1,10.9-6.5,10.9-12.8c0-0.2,0-0.3,0-0.5L223.4,245.5z"/>
<path class="st3" d="M226.3,235.9l-39.1-41.7l29-60.7c1.2-2.5,3.3-4.4,6-5.3c2.6-0.9,5.4-0.7,7.9,0.6l0.3,0.1L226.3,235.9z"/>
<path class="st3" d="M313.4,229.4l-6.9-40.7l0-0.1l16.4-64.5l1.5-0.2c9.2-1,17.6,5.1,19.5,14.2l15.5,76.9L313.4,229.4z"/>
<path class="st4" d="M322.2,106.7h-83V69.2c0-22.9,18.6-41.5,41.5-41.5c22.9,0,41.5,18.6,41.5,41.5V106.7z"/>
<polygon class="st2" points="428.3,573.8 414.2,585.7 361.9,537.1 382.7,519.7 "/>
<path class="st4" d="M443.3,584.4L398,622.6l-0.5-0.6c-8.2-9.7-6.9-24.3,2.8-32.5l0,0l27.7-23.3L443.3,584.4z"/>
<polygon class="st2" points="217.7,619.8 199.4,619.8 190.6,548.9 217.7,548.9 "/>
<path class="st4" d="M222.4,637.6l-59.2,0v-0.7c0-12.7,10.3-23,23-23h0l36.2,0L222.4,637.6z"/>
<path class="st4" d="M137.2,602l9.1-104.6c4.6-53,15.5-105.2,32.5-155.6L217.1,228l3.3-26.5c-10.2-21.1,0.6-37.2,1.8-38.9l-1.3-26.3
	c0-0.5-0.1-1-0.1-1.5c-0.4-5.2-0.1-8.1,10-9.3l83.7-2.6c10.6,0,17,1.7,19.6,5.5c3,4.3,0.6,10.6-1.7,16.6c-0.2,0.6-0.5,1.3-0.7,1.9
	l-33.2,89c16,31,13,78.5,12.9,78.9l1.2,14l121.7,198.9l-72,67.2l-0.3-0.5L246.2,406l-1,190l-0.5,0L137.2,602z"/>
<ellipse transform="matrix(0.4797 -0.8775 0.8775 0.4797 80.7048 283.9709)" class="st2" cx="279.8" cy="73.9" rx="33.9" ry="33.9"/>
<circle class="st4" cx="296.2" cy="22.6" r="22.6"/>
<path class="st4" d="M326.2,75.7h-83v-0.5c0-22.9,18.6-41.5,41.5-41.5c22.9,0,41.5,18.6,41.5,41.5V75.7z"/>
<path class="st5" d="M875.2,638.2H1c-0.6,0-1-0.4-1-1c0-0.6,0.4-1,1-1h874.2c0.6,0,1,0.4,1,1C876.2,637.8,875.7,638.2,875.2,638.2z"
	/>
</svg>
