<?xml version="1.0" encoding="utf-8"?>
<!-- Generator: Adobe Illustrator 24.1.2, SVG Export Plug-In . SVG Version: 6.00 Build 0)  -->
<svg version="1.1" id="b6aa0626-c548-43ac-b721-fcff4f949bc4"
	 xmlns="http://www.w3.org/2000/svg" xmlns:xlink="http://www.w3.org/1999/xlink" x="0px" y="0px" viewBox="0 0 650.9 474.7"
	 style="enable-background:new 0 0 650.9 474.7;" xml:space="preserve">
<style type="text/css">
	.st0{fill:#F3A712;}
	.st1{fill:#2F2E41;}
	.st2{fill:#D39494;}
	.st3{fill:#6C63FF;}
	.st4{fill:#CBCBCB;}
</style>
<path class="st0" d="M61.3,415.8c-18.5,15.8-22.4,41.7-22.4,41.7s26.2,0.3,44.7-15.5s22.4-41.7,22.4-41.7S79.8,400,61.3,415.8z"/>
<path class="st0" d="M69.8,422.1c-7.9,23-30.6,36.1-30.6,36.1s-9.9-24.2-2-47.3s30.6-36.1,30.6-36.1S77.7,399,69.8,422.1z"/>
<path class="st1" d="M263.1,81.4C258.9,76,253,71,252.6,64.3c-0.3-6.1,4.2-12.2,2.3-18.1c-1.5-4.5-6.4-7.2-11.2-8.7
	c-9.2-2.7-19-2.3-27.9,1.1l0.5-0.3c-5.5-1.9-11.8,0.1-16.1,3.8c-4.3,3.7-6.8,8.9-8.8,14c-2,5.2-3.5,10.5-6.3,15.3
	c-2.7,4.8-7,9.2-12.5,10.9c1.9,3.7,7.7,5,11.1,2.4c0.9-0.7,1.7-1.5,2.3-2.4c2.3-2.8,4.5-5.5,6.8-8.3c2.3,4.2-1.2,9.9,1.7,13.8
	c1.5,2,4.2,2.7,6.7,3.3c19.7,4.2,40,3.4,59.3-2.2c1.6-0.5,3.3-1.1,3.9-2.5C265.2,84.7,264.2,82.9,263.1,81.4z"/>
<path class="st2" d="M318.8,102.6c-0.1,0.5-0.2,1.1-0.2,1.6l-43,24.8l-10.4-6l-11.1,14.6l17.5,12.4c2.9,2.1,6.8,2,9.6-0.2l44.3-34.9
	c5.4,2,11.5-0.8,13.5-6.2s-0.8-11.5-6.2-13.5c-5.4-2-11.5,0.8-13.5,6.2C319.1,101.8,318.9,102.2,318.8,102.6z"/>
<path class="st3" d="M274.2,130.2l-13.9,18c-1.5,2-4.3,2.3-6.3,0.8c-0.2-0.1-0.3-0.3-0.5-0.4l-15.7-16.3c-5.4-4.2-6.4-12.1-2.2-17.5
	c4.2-5.4,12.1-6.4,17.5-2.2l19.7,11c2.2,1.2,2.9,4,1.7,6.1C274.5,129.9,274.3,130.1,274.2,130.2L274.2,130.2z"/>
<polygon class="st2" points="255.1,443.8 267.3,443.8 273.2,396.5 255.1,396.5 "/>
<path class="st1" d="M252,439.7l24.1,0h0c8.5,0,15.4,6.9,15.4,15.4v0.5l-39.5,0L252,439.7z"/>
<polygon class="st2" points="171.1,443.8 183.3,443.8 189.2,396.5 171.1,396.5 "/>
<path class="st1" d="M168,439.7l24.1,0h0c8.5,0,15.4,6.9,15.4,15.4v0.5l-39.5,0L168,439.7z"/>
<circle class="st2" cx="226.7" cy="72.4" r="21.2"/>
<path class="st1" d="M239.1,104.2l12.5,6.2c0,0,13.9,24.2,5.9,47.2c-3.9,11.2,7.1,46.8,7.1,46.8s16.9,161.2,17,211
	c-21.1,3.2-41.1,7.2-42.1-2.8s-11.9-128.2-11.9-128.2s-15.1,131.2-27.1,133.2s-36-1-36-1s19.1-192.2,32.1-204.2l2-10l-0.1-89.8
	l15-7.1L239.1,104.2z"/>
<path class="st2" d="M194.4,240.5c5.2-2.8,7.2-9.3,4.3-14.6c-0.3-0.6-0.7-1.1-1-1.6l14.5-96.8l-19-0.9L181.9,223
	c-4.4,4-4.7,10.8-0.7,15.3C184.6,242,190,242.9,194.4,240.5L194.4,240.5z"/>
<path class="st3" d="M211.8,151.8l-22.7-1.4c-2.5-0.2-4.4-2.3-4.2-4.8c0-0.2,0-0.4,0.1-0.7l4.7-22.2c0.5-6.9,6.4-12.1,13.3-11.6
	c6.9,0.5,12,6.4,11.6,13.3l1.9,22.5c0.2,2.5-1.6,4.7-4.1,4.9C212.2,151.8,212,151.8,211.8,151.8L211.8,151.8z"/>
<path class="st4" d="M395.8,456.7h-381c-0.6,0-1-0.4-1-1s0.4-1,1-1h381c0.6,0,1,0.4,1,1S396.4,456.7,395.8,456.7z"/>
<path class="st1" d="M248.9,58.7c-0.8-3.7-3.5-6.8-6.6-9.1c-10.5-7.7-25-6.8-34.5,2.1c-2.6,2.3-4.4,5.2-5.3,8.5
	c-0.9,3.4,0,6.9,2.2,9.5l0.4,0.3c-0.4-1.6,0.9-3.3,2.4-4c1.6-0.6,3.2-0.9,4.9-1.1c5.1-1,9.5-4.1,12.2-8.6c1.9,5.5,6.2,9.9,11.6,12.1
	c2.8,1.1,10.5,2.6,13.2,1.2C252.7,67.9,249.7,62.4,248.9,58.7z"/>
</svg>
