<?xml version="1.0" encoding="utf-8"?>
<!-- Generator: Adobe Illustrator 24.1.2, SVG Export Plug-In . SVG Version: 6.00 Build 0)  -->
<svg version="1.1" id="a5531c2a-42c0-48e3-8177-211774c58b20"
	 xmlns="http://www.w3.org/2000/svg" xmlns:xlink="http://www.w3.org/1999/xlink" x="0px" y="0px" viewBox="0 0 834.4 597.3"
	 style="enable-background:new 0 0 834.4 597.3;" xml:space="preserve">
<style type="text/css">
	.st0{fill:#F3A712;}
	.st1{fill:#3F3D56;}
	.st2{fill:#9F616A;}
	.st3{fill:#2F2E41;}
	.st4{fill:#CBCBCB;}
	.st5{fill:#140152;}
	.st6{fill:#F2F2F2;}
	.st7{fill:#6C63FF;}
</style>
<path class="st0" d="M721.9,564.3l2.3,0c-0.9-25.5-3.6-50.9-8.1-76c-9.9-53.8-26.4-89.1-49-105l-1.3,1.9
	C718.5,422.2,721.9,562.9,721.9,564.3z"/>
<path class="st0" d="M693.2,563.8l2.3,0c0-2.5-1.5-62.4-25.1-79l-1.3,1.9C691.8,502.5,693.2,563.2,693.2,563.8z"/>
<circle class="st0" cx="652.7" cy="373.9" r="11.5"/>
<circle class="st0" cx="658.3" cy="472.5" r="11.5"/>
<path class="st0" d="M698.6,392.2c-2.2,13.8,3.5,26.1,3.5,26.1s9.1-10,11.3-23.8s-3.5-26.1-3.5-26.1S700.7,378.5,698.6,392.2z"/>
<path class="st0" d="M661.1,425.7c13.2,4.5,26.3,1.1,26.3,1.1s-8.3-10.7-21.5-15.2s-26.3-1.1-26.3-1.1S647.9,421.2,661.1,425.7z"/>
<path class="st0" d="M660.7,513c6,1.9,12.3,2.1,18.4,0.8c-7.9-10.1-21-14.6-33.5-11.5C649.6,507.2,654.8,510.9,660.7,513z"/>
<path class="st1" d="M531.1,389.5h-55.5c0,2.4-60.6,4.3-60.6,4.3c-1.3,1-2.6,2.2-3.6,3.4c-3.2,3.9-5,8.7-5,13.8v3.4
	c0,11.9,9.6,21.5,21.5,21.5h103.2c11.9,0,21.5-9.6,21.5-21.5V411C552.6,399.1,542.9,389.5,531.1,389.5z"/>
<rect x="468.3" y="435.1" class="st1" width="22.4" height="129.2"/>
<path class="st1" d="M404.6,563.6c0,2.4,33.9,0.9,75.8,0.9s75.8,1.5,75.8-0.9S522.2,542,480.4,542
	C438.5,542,404.6,561.2,404.6,563.6z"/>
<polygon class="st2" points="389.6,548.8 372.9,548.8 365,484.5 389.6,484.5 "/>
<path class="st3" d="M393.8,543.4l-32.8,0h0c-11.5,0-20.9,9.4-20.9,20.9v0.7l53.7,0L393.8,543.4z"/>
<polygon class="st2" points="340.3,548.8 323.7,548.8 315.7,484.5 340.3,484.5 "/>
<path class="st3" d="M344.6,543.4l-32.8,0h0c-11.5,0-20.9,9.4-20.9,20.9v0.7l53.7,0L344.6,543.4z"/>
<path class="st2" d="M398.3,345.4c0.9-6.9,7.2-11.9,14.2-11c0.7,0.1,1.5,0.3,2.2,0.5l18.5-22.2l16.3,8l-26.6,31
	c-2.5,6.6-9.9,9.8-16.5,7.3C400.9,356.8,397.5,351.2,398.3,345.4z"/>
<polygon class="st4" points="460.7,213.5 449.8,218 447.2,248.7 418,328.4 442.8,336.6 470.3,283.2 "/>
<circle class="st2" cx="488.9" cy="149" r="29"/>
<path class="st3" d="M493.4,135.5c0,0-1.3-17.6-17-10.4c-15.7,7.2-14.7-12.6-9.9-16.1c4.7-3.5,4.6-4.4,21.9-2s51,6.3,40.1,41.2
	c-10.9,34.9-26.9,25.8-26.9,25.8s14.8-31.3,6.1-25.3l-8.8,6l-4.6-1L493.4,135.5z"/>
<path class="st5" d="M514.5,147.1l5.9-32c0.4-2.4-1.1-4.7-3.5-5.1c0,0,0,0,0,0l-6.9-1.3l-6.7,36.3L514.5,147.1z"/>
<circle class="st5" cx="507.8" cy="152.1" r="13.2"/>
<circle class="st6" cx="507.8" cy="152.1" r="7.9"/>
<circle class="st7" cx="507.8" cy="152.1" r="2.6"/>
<path class="st3" d="M536.5,348.3c0,0,9.7,51.4-27.3,58s-90.4,11.1-90.4,11.1l-24,111.9l-32.2-2.9c0,0,4.3-134.7,14.8-145.2
	s60.6-41.4,60.6-41.4L536.5,348.3z"/>
<path class="st3" d="M464.2,326.8L448.1,343c0,0-116.8,18.8-121.3,45.8c-6.8,40.7-14.8,129.3-14.8,129.3l35.1-2.6l13.8-100.7
	L417,402l63.9-34.8L464.2,326.8z"/>
<path class="st4" d="M465.1,202.3l9.4-12.5l30.5-0.5l0,0c19.4,10.3,31.5,30.5,31.5,52.4v78.8c0,0-0.4,10.5,1.9,34.6
	c2,20.8-108.6-12.2-108.6-12.2l14.4-117C444.1,226,442.9,207.4,465.1,202.3z"/>
<path class="st2" d="M437.3,371.4c0.9-6.9,7.2-11.9,14.2-11c0.7,0.1,1.5,0.3,2.2,0.5l18.5-22.2l16.3,8l-26.6,31
	c-2.5,6.6-9.9,9.8-16.5,7.3C439.8,382.9,436.5,377.3,437.3,371.4L437.3,371.4z"/>
<path class="st4" d="M514.2,215.1l9.7-3.2c0,0,11.6,2.5,18.4,18.1s-0.1,79.2-0.1,79.2l-71.1,61.4l-13.5-25.2l39.4-53.4
	C497,292.1,480.1,234.6,514.2,215.1z"/>
<path class="st4" d="M215.1,566h577c0.6,0,1.1-0.5,1.1-1.1s-0.5-1.1-1.1-1.1h-577c-0.6,0-1.1,0.5-1.1,1.1S214.5,566,215.1,566z"/>
</svg>
