<?xml version="1.0" encoding="utf-8"?>
<!-- Generator: Adobe Illustrator 24.1.2, SVG Export Plug-In . SVG Version: 6.00 Build 0)  -->
<svg version="1.1" id="ab80713a-a851-46d9-b7e4-877a3942e50e"
	 xmlns="http://www.w3.org/2000/svg" xmlns:xlink="http://www.w3.org/1999/xlink" x="0px" y="0px" viewBox="0 0 797.6 517.3"
	 style="enable-background:new 0 0 797.6 517.3;" xml:space="preserve">
<style type="text/css">
	.st0{fill:#F3A712;}
	.st1{fill:#F2F2F2;}
	.st2{fill:#FFB7B7;}
	.st3{fill:#2F2E41;}
	.st4{fill:#FFB8B8;}
	.st5{fill:#6C63FF;}
	.st6{fill:#3F3D56;}
	.st7{fill:#CBCBCB;}
</style>
<path id="fd60ad6d-234f-4794-b327-6c250fb58182" class="st0" d="M518.3,467.4c8.2,2.9,17.3,1.3,24.1-4.2
	c8.4-7.1,11.1-18.7,13.2-29.5l6.4-31.9l-13.3,9.2c-9.6,6.6-19.4,13.4-26,22.9c-6.6,9.5-9.5,22.6-4.2,32.9"/>
<path id="bb4d4dd3-dbdc-44b5-88db-bf6307e476a1" class="st1" d="M519.5,506.1c-1.3-9.8-2.7-19.8-1.8-29.7c0.8-8.8,3.5-17.4,9-24.5
	c2.9-3.7,6.4-6.9,10.4-9.5c1-0.7,2,1,1,1.7c-6.9,4.4-12.3,10.8-15.3,18.5c-3.3,8.5-3.9,17.7-3.3,26.7c0.3,5.4,1.1,10.9,1.8,16.3
	c0.1,0.5-0.2,1-0.7,1.2C520.1,506.9,519.6,506.6,519.5,506.1L519.5,506.1z"/>
<path id="fe08dba1-9a00-49ac-809e-caf1a04d3592" class="st0" d="M627,505.7c0,0-14-34.4,28-60.2L627,505.7z"/>
<path id="ae08b72c-0170-4ceb-bc44-c76ada017e82" class="st0" d="M609.8,505c0,0-4.3-24.5-37.3-24.3L609.8,505z"/>
<polygon class="st2" points="345.4,492.8 333.2,492.8 327.3,445.5 345.4,445.5 "/>
<path class="st3" d="M348.6,504.7l-39.5,0v-0.5c0-8.5,6.9-15.4,15.4-15.4h0l24.2,0L348.6,504.7z"/>
<polygon class="st2" points="450.8,474.9 440.5,481.6 409.9,445.1 425,435.2 "/>
<path class="st3" d="M459.9,483.2l-33.2,21.6l-0.3-0.4c-4.6-7.1-2.6-16.7,4.5-21.3l0,0l20.3-13.2L459.9,483.2z"/>
<circle class="st3" cx="376.8" cy="35" r="11.3"/>
<path class="st3" d="M366.1,39.1c-3.8-5-2.8-12.1,2.2-15.8c1.5-1.1,3.2-1.9,5.1-2.2c-6.2-0.2-11.4,4.7-11.6,11
	c-0.2,6.2,4.7,11.4,11,11.6c0.7,0,1.4,0,2-0.1C371.4,43.5,368.2,41.8,366.1,39.1z"/>
<ellipse transform="matrix(0.331 -0.9436 0.9436 0.331 173.474 394.6577)" class="st3" cx="365.1" cy="75" rx="33.2" ry="33.2"/>
<path class="st3" d="M334.1,62.9c7.5-16.3,26.5-23.7,43-16.8c-0.3-0.2-0.7-0.3-1-0.5c-16.7-7.6-36.4-0.3-44,16.3
	c-7.6,16.7-0.3,36.4,16.3,44l0,0c0.3,0.2,0.7,0.3,1,0.4C333.4,98.4,326.7,79.2,334.1,62.9z"/>
<polygon class="st3" points="405.4,249.2 429.1,372.6 460.4,464.8 409.8,475.2 360.7,290.8 359.3,467.8 295.3,469.3 310.2,363.7 
	328.2,244.5 "/>
<circle class="st4" cx="365.2" cy="85.6" r="22.3"/>
<path class="st5" d="M386,119l-34.2,0.9L328,131.7l3,68.4l-5.8,52.4c0,0-2.2,8.2,12.7,15.6c4.8,2.4,10.9,3.4,17,3.7
	c12.6,0.4,24.9-3.5,34.9-11c3.1-2.3,6.6-3.8,9.5-2.6c7.4,3,8.9-5.9,8.9-5.9l-8.9-43.1l13.4-41l-13.5-44L386,119z"/>
<polygon class="st3" points="344.6,62.3 344.6,87.2 350.3,87.2 357.7,79.3 356.7,87.2 382.1,87.2 380.5,79.3 383.7,87.2 387.7,87.2 
	387.7,62.3 "/>
<path class="st5" d="M392.2,79.5c-0.1-1.4-1.3-2.5-2.7-2.5h-2.7v18h2.7c1.4,0,2.6-1.1,2.7-2.5c2.8-0.8,4.7-3.3,4.7-6.2v-0.7
	C396.9,82.8,395,80.2,392.2,79.5z"/>
<path class="st5" d="M342.9,92.8h-3c-3.5,0-6.4-2.9-6.4-6.4v0v-0.7c0-3.5,2.9-6.4,6.4-6.4h0h3V92.8L342.9,92.8z"/>
<path class="st5" d="M343.6,95h-2.7c-1.5,0-2.7-1.2-2.7-2.7l0,0V79.7c0-1.5,1.2-2.7,2.7-2.7h2.7V95L343.6,95z"/>
<path class="st5" d="M390.7,80.2h-2c0-14.1-10.5-25.6-23.3-25.6C352.5,54.5,342,66,342,80.2h-2c0-15.2,11.4-27.6,25.3-27.6
	C379.4,52.5,390.7,64.9,390.7,80.2z"/>
<path class="st2" d="M309.2,288.7c4.5-2.5,6.2-8.2,3.7-12.7c-0.3-0.5-0.6-0.9-0.9-1.4l10.3-18.8l-9.9-9l-14.2,26.8
	c-3.8,3.5-4.1,9.5-0.6,13.3C300.6,290,305.4,290.8,309.2,288.7L309.2,288.7z"/>
<path class="st5" d="M335.5,131.7l-4-2c0,0-9.4,2-12.4,7.9c-3,5.9-10.4,66.9-10.4,66.9l-5.9,40.1c0,0-4.5,0-4.5,4.5
	s-5.9,16.4-1.5,16.4s22.3,0,25.3-3s8.9-14.9,7.4-16.4c-1.5-1.5-4.5-1.5-4.5-1.5l4.2-40.3L335.5,131.7z"/>
<path class="st2" d="M415.4,274.7c-3.8-3.6-3.9-9.5-0.4-13.3c0.4-0.4,0.8-0.8,1.2-1.1l-5.2-20.8l11.9-6.2l6.9,29.5
	c2.8,4.4,1.6,10.2-2.8,13C423.3,278.1,418.5,277.7,415.4,274.7L415.4,274.7z"/>
<path class="st5" d="M400.5,191.3l4.2,40.3c0,0-3,0-4.5,1.5c-1.5,1.5,4.5,13.4,7.4,16.4c3,3,20.8,3,25.3,3s-1.5-11.9-1.5-16.4
	s-4.5-4.5-4.5-4.5l-5.9-40.1c0,0-7.4-54.4-10.4-60.3c-3-5.9-12.4-7.9-12.4-7.9l-4,2L400.5,191.3z"/>
<path class="st6" d="M318.9,275.1l-0.2,0.1l-3.3-5.3c-1.1-1.7-3.3-2.2-5-1.1l0,0l-11.1,7.1c-1.7,1.1-2.2,3.3-1.1,5l0,0l18.3,28.8
	c1.1,1.7,3.3,2.2,5,1.1c0,0,0,0,0,0l11.1-7.1c1.7-1.1,2.2-3.3,1.1-5l0,0L321.1,279l0.2-0.1L318.9,275.1z"/>
<path class="st5" d="M314.7,270.4l18.3,28.8c0.8,1.3,0.4,2.9-0.8,3.7L321,310c-1.3,0.8-2.9,0.4-3.7-0.8L299,280.4
	c-0.8-1.3-0.4-2.9,0.8-3.7l1.4-0.9c0.1,0.7,0.8,1.2,1.5,1c0.2,0,0.3-0.1,0.5-0.2l6.4-4c0.6-0.4,0.8-1.2,0.4-1.8
	c-0.1-0.1-0.2-0.3-0.3-0.4l1.5-0.9C312.3,268.8,313.9,269.2,314.7,270.4z"/>
<path class="st7" d="M645.9,506.8H228.2c-0.6,0-1.1-0.5-1.1-1.1s0.5-1.1,1.1-1.1h417.7c0.6,0,1.1,0.5,1.1,1.1
	S646.5,506.8,645.9,506.8z"/>
</svg>
